<svg xmlns="http://www.w3.org/2000/svg" xmlns:xlink="http://www.w3.org/1999/xlink" xmlns:s="https://github.com/nturley/netlistsvg" width="1248" height="1195.5">
  <rect x="0" y="0" width="100%" height="100%" fill="#ffffff" stroke="none"/>
  <style>svg {
    stroke:#333333;
    fill:none;
  }
  text {
    fill:#0d1b2a;
    stroke:none;
    font-size:10px;
    font-weight: bold;
    font-family: "Courier New", monospace;
  }
  .nodelabel {
    text-anchor: middle;
  }
  .inputPortLabel {
    text-anchor: end;
  }
  .splitjoinBody {
    fill:#000;
  }
  line[class^="net_"] {
    stroke:#1565C0;
    stroke-width:1.3;
  }</style>
  <g s:type="add" stroke="#2E7D32" stroke-width="1.6" transform="translate(813,418)" s:width="25" s:height="25" id="cell_$add$rtl_schematic/synth_tmp/cpu_top_synth.v:161$31">
    <s:alias val="$add"/>
    <circle r="12.5" cx="12.5" cy="12.5" class="cell_$add$rtl_schematic/synth_tmp/cpu_top_synth.v:161$31"/>
    <line x1="7.5" x2="17.5" y1="12.5" y2="12.5" class="cell_$add$rtl_schematic/synth_tmp/cpu_top_synth.v:161$31"/>
    <line x1="12.5" x2="12.5" y1="7.5" y2="17.5" class="cell_$add$rtl_schematic/synth_tmp/cpu_top_synth.v:161$31"/>
    <g s:x="3" s:y="5" s:pid="A"/>
    <g s:x="3" s:y="20" s:pid="B"/>
    <g s:x="25" s:y="12.5" s:pid="Y"/>
  </g>
  <g s:type="generic" stroke="#1565C0" stroke-width="1.4" transform="translate(898,246.5)" s:width="30" s:height="40" id="cell_$auto$ff.cc:337:slice$499">
    <text x="15" y="-4" class="nodelabel cell_$auto$ff.cc:337:slice$499" s:attribute="ref">$adffe</text>
    <rect fill="#E3F2FD" width="30" height="80" s:generic="body" class="cell_$auto$ff.cc:337:slice$499"/>
    <g transform="translate(0,10)" s:x="0" s:y="10" s:pid="in0" id="port_$auto$ff.cc:337:slice$499~ARST">
      <text x="-3" y="-4" class="inputPortLabel cell_$auto$ff.cc:337:slice$499">ARST</text>
    </g>
    <g transform="translate(0,30)" s:x="0" s:y="10" s:pid="in0" id="port_$auto$ff.cc:337:slice$499~CLK">
      <text x="-3" y="-4" class="inputPortLabel cell_$auto$ff.cc:337:slice$499">CLK</text>
    </g>
    <g transform="translate(0,50)" s:x="0" s:y="10" s:pid="in0" id="port_$auto$ff.cc:337:slice$499~D">
      <text x="-3" y="-4" class="inputPortLabel cell_$auto$ff.cc:337:slice$499">D</text>
    </g>
    <g transform="translate(0,70)" s:x="0" s:y="10" s:pid="in0" id="port_$auto$ff.cc:337:slice$499~EN">
      <text x="-3" y="-4" class="inputPortLabel cell_$auto$ff.cc:337:slice$499">EN</text>
    </g>
    <g transform="translate(30,10)" s:x="30" s:y="10" s:pid="out0" id="port_$auto$ff.cc:337:slice$499~Q">
      <text x="5" y="-4" style="fill:#000; stroke:none" class="cell_$auto$ff.cc:337:slice$499">Q</text>
    </g>
  </g>
  <g s:type="eq" stroke="#E65100" stroke-width="1.6" transform="translate(456.6666666666667,220)" s:width="25" s:height="25" id="cell_$eq$rtl_schematic/synth_tmp/cpu_top_synth.v:164$34">
    <s:alias val="$eq"/>
    <circle r="12.5" cx="12.5" cy="12.5" class="cell_$eq$rtl_schematic/synth_tmp/cpu_top_synth.v:164$34"/>
    <line x1="7.5" x2="17.5" y1="10" y2="10" class="cell_$eq$rtl_schematic/synth_tmp/cpu_top_synth.v:164$34"/>
    <line x1="7.5" x2="17.5" y1="15" y2="15" class="cell_$eq$rtl_schematic/synth_tmp/cpu_top_synth.v:164$34"/>
    <g s:x="3" s:y="5" s:pid="A"/>
    <g s:x="3" s:y="20" s:pid="B"/>
    <g s:x="25" s:y="12.5" s:pid="Y"/>
  </g>
  <g s:type="eq" stroke="#E65100" stroke-width="1.6" transform="translate(299,304.5)" s:width="25" s:height="25" id="cell_$eq$rtl_schematic/synth_tmp/cpu_top_synth.v:173$38">
    <s:alias val="$eq"/>
    <circle r="12.5" cx="12.5" cy="12.5" class="cell_$eq$rtl_schematic/synth_tmp/cpu_top_synth.v:173$38"/>
    <line x1="7.5" x2="17.5" y1="10" y2="10" class="cell_$eq$rtl_schematic/synth_tmp/cpu_top_synth.v:173$38"/>
    <line x1="7.5" x2="17.5" y1="15" y2="15" class="cell_$eq$rtl_schematic/synth_tmp/cpu_top_synth.v:173$38"/>
    <g s:x="3" s:y="5" s:pid="A"/>
    <g s:x="3" s:y="20" s:pid="B"/>
    <g s:x="25" s:y="12.5" s:pid="Y"/>
  </g>
  <g s:type="eq" stroke="#E65100" stroke-width="1.6" transform="translate(456.6666666666667,736.5)" s:width="25" s:height="25" id="cell_$eq$rtl_schematic/synth_tmp/cpu_top_synth.v:95$20">
    <s:alias val="$eq"/>
    <circle r="12.5" cx="12.5" cy="12.5" class="cell_$eq$rtl_schematic/synth_tmp/cpu_top_synth.v:95$20"/>
    <line x1="7.5" x2="17.5" y1="10" y2="10" class="cell_$eq$rtl_schematic/synth_tmp/cpu_top_synth.v:95$20"/>
    <line x1="7.5" x2="17.5" y1="15" y2="15" class="cell_$eq$rtl_schematic/synth_tmp/cpu_top_synth.v:95$20"/>
    <g s:x="3" s:y="5" s:pid="A"/>
    <g s:x="3" s:y="20" s:pid="B"/>
    <g s:x="25" s:y="12.5" s:pid="Y"/>
  </g>
  <g s:type="eq" stroke="#E65100" stroke-width="1.6" transform="translate(456.6666666666667,673)" s:width="25" s:height="25" id="cell_$eq$rtl_schematic/synth_tmp/cpu_top_synth.v:98$22">
    <s:alias val="$eq"/>
    <circle r="12.5" cx="12.5" cy="12.5" class="cell_$eq$rtl_schematic/synth_tmp/cpu_top_synth.v:98$22"/>
    <line x1="7.5" x2="17.5" y1="10" y2="10" class="cell_$eq$rtl_schematic/synth_tmp/cpu_top_synth.v:98$22"/>
    <line x1="7.5" x2="17.5" y1="15" y2="15" class="cell_$eq$rtl_schematic/synth_tmp/cpu_top_synth.v:98$22"/>
    <g s:x="3" s:y="5" s:pid="A"/>
    <g s:x="3" s:y="20" s:pid="B"/>
    <g s:x="25" s:y="12.5" s:pid="Y"/>
  </g>
  <g s:type="not" stroke="#C62828" stroke-width="1.4" transform="translate(520,222.5)" s:width="30" s:height="20" id="cell_$not$rtl_schematic/synth_tmp/cpu_top_synth.v:167$35">
    <s:alias val="$_NOT_"/>
    <s:alias val="$not"/>
    <s:alias val="$logic_not"/>
    <path fill="#FFEBEE" d="M0,0 L0,20 L20,10 Z" class="cell_$not$rtl_schematic/synth_tmp/cpu_top_synth.v:167$35"/>
    <circle cx="23" cy="10" r="3" class="cell_$not$rtl_schematic/synth_tmp/cpu_top_synth.v:167$35"/>
    <g s:x="0" s:y="10" s:pid="A"/>
    <g s:x="25" s:y="10" s:pid="Y"/>
  </g>
  <g s:type="generic" stroke="#1565C0" stroke-width="1.4" transform="translate(1108,359.5)" s:width="30" s:height="40" id="cell_$procdff$459">
    <text x="15" y="-4" class="nodelabel cell_$procdff$459" s:attribute="ref">$adff</text>
    <rect fill="#E3F2FD" width="30" height="60" s:generic="body" class="cell_$procdff$459"/>
    <g transform="translate(0,10)" s:x="0" s:y="10" s:pid="in0" id="port_$procdff$459~ARST">
      <text x="-3" y="-4" class="inputPortLabel cell_$procdff$459">ARST</text>
    </g>
    <g transform="translate(0,30)" s:x="0" s:y="10" s:pid="in0" id="port_$procdff$459~CLK">
      <text x="-3" y="-4" class="inputPortLabel cell_$procdff$459">CLK</text>
    </g>
    <g transform="translate(0,50)" s:x="0" s:y="10" s:pid="in0" id="port_$procdff$459~D">
      <text x="-3" y="-4" class="inputPortLabel cell_$procdff$459">D</text>
    </g>
    <g transform="translate(30,10)" s:x="30" s:y="10" s:pid="out0" id="port_$procdff$459~Q">
      <text x="5" y="-4" style="fill:#000; stroke:none" class="cell_$procdff$459">Q</text>
    </g>
  </g>
  <g s:type="generic" stroke="#1565C0" stroke-width="1.4" transform="translate(1108,520)" s:width="30" s:height="40" id="cell_$procdff$464">
    <text x="15" y="-4" class="nodelabel cell_$procdff$464" s:attribute="ref">$adff</text>
    <rect fill="#E3F2FD" width="30" height="60" s:generic="body" class="cell_$procdff$464"/>
    <g transform="translate(0,10)" s:x="0" s:y="10" s:pid="in0" id="port_$procdff$464~ARST">
      <text x="-3" y="-4" class="inputPortLabel cell_$procdff$464">ARST</text>
    </g>
    <g transform="translate(0,30)" s:x="0" s:y="10" s:pid="in0" id="port_$procdff$464~CLK">
      <text x="-3" y="-4" class="inputPortLabel cell_$procdff$464">CLK</text>
    </g>
    <g transform="translate(0,50)" s:x="0" s:y="10" s:pid="in0" id="port_$procdff$464~D">
      <text x="-3" y="-4" class="inputPortLabel cell_$procdff$464">D</text>
    </g>
    <g transform="translate(30,10)" s:x="30" s:y="10" s:pid="out0" id="port_$procdff$464~Q">
      <text x="5" y="-4" style="fill:#000; stroke:none" class="cell_$procdff$464">Q</text>
    </g>
  </g>
  <g s:type="mux" stroke="#F57F17" stroke-width="1.4" transform="translate(818,829)" s:width="20" s:height="40" id="cell_$ternary$rtl_schematic/synth_tmp/cpu_top_synth.v:120$27">
    <s:alias val="$pmux"/>
    <s:alias val="$mux"/>
    <s:alias val="$_MUX_"/>
    <path fill="#FFF9C4" d="M0,0 L20,10 L20,30 L0,40 Z" class="cell_$ternary$rtl_schematic/synth_tmp/cpu_top_synth.v:120$27"/>
    <g s:x="0" s:y="10" s:pid="A"/>
    <g s:x="0" s:y="30" s:pid="B"/>
    <g s:x="10" s:y="35" s:pid="S"/>
    <g s:x="20" s:y="20" s:pid="Y"/>
  </g>
  <g s:type="mux" stroke="#F57F17" stroke-width="1.4" transform="translate(1108,1039)" s:width="20" s:height="40" id="cell_$ternary$rtl_schematic/synth_tmp/cpu_top_synth.v:158$30">
    <s:alias val="$pmux"/>
    <s:alias val="$mux"/>
    <s:alias val="$_MUX_"/>
    <path fill="#FFF9C4" d="M0,0 L20,10 L20,30 L0,40 Z" class="cell_$ternary$rtl_schematic/synth_tmp/cpu_top_synth.v:158$30"/>
    <g s:x="0" s:y="10" s:pid="A"/>
    <g s:x="0" s:y="30" s:pid="B"/>
    <g s:x="10" s:y="35" s:pid="S"/>
    <g s:x="20" s:y="20" s:pid="Y"/>
  </g>
  <g s:type="mux" stroke="#F57F17" stroke-width="1.4" transform="translate(945,470.5)" s:width="20" s:height="40" id="cell_$ternary$rtl_schematic/synth_tmp/cpu_top_synth.v:161$33">
    <s:alias val="$pmux"/>
    <s:alias val="$mux"/>
    <s:alias val="$_MUX_"/>
    <path fill="#FFF9C4" d="M0,0 L20,10 L20,30 L0,40 Z" class="cell_$ternary$rtl_schematic/synth_tmp/cpu_top_synth.v:161$33"/>
    <g s:x="0" s:y="10" s:pid="A"/>
    <g s:x="0" s:y="30" s:pid="B"/>
    <g s:x="10" s:y="35" s:pid="S"/>
    <g s:x="20" s:y="20" s:pid="Y"/>
  </g>
  <g s:type="mux" stroke="#F57F17" stroke-width="1.4" transform="translate(523.3333333333333,695.5)" s:width="20" s:height="40" id="cell_$ternary$rtl_schematic/synth_tmp/cpu_top_synth.v:95$21">
    <s:alias val="$pmux"/>
    <s:alias val="$mux"/>
    <s:alias val="$_MUX_"/>
    <path fill="#FFF9C4" d="M0,0 L20,10 L20,30 L0,40 Z" class="cell_$ternary$rtl_schematic/synth_tmp/cpu_top_synth.v:95$21"/>
    <g s:x="0" s:y="10" s:pid="A"/>
    <g s:x="0" s:y="30" s:pid="B"/>
    <g s:x="10" s:y="35" s:pid="S"/>
    <g s:x="20" s:y="20" s:pid="Y"/>
  </g>
  <g s:type="mux" stroke="#F57F17" stroke-width="1.4" transform="translate(523.3333333333333,595.5)" s:width="20" s:height="40" id="cell_$ternary$rtl_schematic/synth_tmp/cpu_top_synth.v:98$25">
    <s:alias val="$pmux"/>
    <s:alias val="$mux"/>
    <s:alias val="$_MUX_"/>
    <path fill="#FFF9C4" d="M0,0 L20,10 L20,30 L0,40 Z" class="cell_$ternary$rtl_schematic/synth_tmp/cpu_top_synth.v:98$25"/>
    <g s:x="0" s:y="10" s:pid="A"/>
    <g s:x="0" s:y="30" s:pid="B"/>
    <g s:x="10" s:y="35" s:pid="S"/>
    <g s:x="20" s:y="20" s:pid="Y"/>
  </g>
  <g s:type="mux" stroke="#F57F17" stroke-width="1.4" transform="translate(458.3333333333333,545.5)" s:width="20" s:height="40" id="cell_$ternary$rtl_schematic/synth_tmp/cpu_top_synth.v:99$24">
    <s:alias val="$pmux"/>
    <s:alias val="$mux"/>
    <s:alias val="$_MUX_"/>
    <path fill="#FFF9C4" d="M0,0 L20,10 L20,30 L0,40 Z" class="cell_$ternary$rtl_schematic/synth_tmp/cpu_top_synth.v:99$24"/>
    <g s:x="0" s:y="10" s:pid="A"/>
    <g s:x="0" s:y="30" s:pid="B"/>
    <g s:x="10" s:y="35" s:pid="S"/>
    <g s:x="20" s:y="20" s:pid="Y"/>
  </g>
  <g s:type="generic" stroke="#1565C0" stroke-width="1.4" transform="translate(945.5,818.5)" s:width="30" s:height="40" id="cell_alu">
    <text x="15" y="-4" class="nodelabel cell_alu" s:attribute="ref">alu_4bit</text>
    <rect fill="#E3F2FD" width="30" height="80" s:generic="body" class="cell_alu"/>
    <g transform="translate(0,10)" s:x="0" s:y="10" s:pid="in0" id="port_alu~a">
      <text x="-3" y="-4" class="inputPortLabel cell_alu">a</text>
    </g>
    <g transform="translate(0,30)" s:x="0" s:y="10" s:pid="in0" id="port_alu~b">
      <text x="-3" y="-4" class="inputPortLabel cell_alu">b</text>
    </g>
    <g transform="translate(0,50)" s:x="0" s:y="10" s:pid="in0" id="port_alu~op">
      <text x="-3" y="-4" class="inputPortLabel cell_alu">op</text>
    </g>
    <g transform="translate(30,10)" s:x="30" s:y="10" s:pid="out0" id="port_alu~carry">
      <text x="5" y="-4" style="fill:#000; stroke:none" class="cell_alu">carry</text>
    </g>
    <g transform="translate(30,30)" s:x="30" s:y="10" s:pid="out0" id="port_alu~negative">
      <text x="5" y="-4" style="fill:#000; stroke:none" class="cell_alu">negative</text>
    </g>
    <g transform="translate(30,50)" s:x="30" s:y="10" s:pid="out0" id="port_alu~result">
      <text x="5" y="-4" style="fill:#000; stroke:none" class="cell_alu">result</text>
    </g>
    <g transform="translate(30,70)" s:x="30" s:y="10" s:pid="out0" id="port_alu~zero">
      <text x="5" y="-4" style="fill:#000; stroke:none" class="cell_alu">zero</text>
    </g>
  </g>
  <g s:type="generic" stroke="#1565C0" stroke-width="1.4" transform="translate(293,880)" s:width="30" s:height="40" id="cell_ctrl">
    <text x="15" y="-4" class="nodelabel cell_ctrl" s:attribute="ref">control_unit</text>
    <rect width="30" height="160" s:generic="body" class="cell_ctrl"/>
    <g transform="translate(0,10)" s:x="0" s:y="10" s:pid="in0" id="port_ctrl~imm_mode">
      <text x="-3" y="-4" class="inputPortLabel cell_ctrl">imm_mode</text>
    </g>
    <g transform="translate(0,30)" s:x="0" s:y="10" s:pid="in0" id="port_ctrl~negative">
      <text x="-3" y="-4" class="inputPortLabel cell_ctrl">negative</text>
    </g>
    <g transform="translate(0,50)" s:x="0" s:y="10" s:pid="in0" id="port_ctrl~opcode">
      <text x="-3" y="-4" class="inputPortLabel cell_ctrl">opcode</text>
    </g>
    <g transform="translate(0,70)" s:x="0" s:y="10" s:pid="in0" id="port_ctrl~zero">
      <text x="-3" y="-4" class="inputPortLabel cell_ctrl">zero</text>
    </g>
    <g transform="translate(30,10)" s:x="30" s:y="10" s:pid="out0" id="port_ctrl~alu_op">
      <text x="5" y="-4" style="fill:#000; stroke:none" class="cell_ctrl">alu_op</text>
    </g>
    <g transform="translate(30,30)" s:x="30" s:y="10" s:pid="out0" id="port_ctrl~alu_src">
      <text x="5" y="-4" style="fill:#000; stroke:none" class="cell_ctrl">alu_src</text>
    </g>
    <g transform="translate(30,50)" s:x="30" s:y="10" s:pid="out0" id="port_ctrl~mem_read">
      <text x="5" y="-4" style="fill:#000; stroke:none" class="cell_ctrl">mem_read</text>
    </g>
    <g transform="translate(30,70)" s:x="30" s:y="10" s:pid="out0" id="port_ctrl~mem_to_reg">
      <text x="5" y="-4" style="fill:#000; stroke:none" class="cell_ctrl">mem_to_reg</text>
    </g>
    <g transform="translate(30,90)" s:x="30" s:y="10" s:pid="out0" id="port_ctrl~mem_write">
      <text x="5" y="-4" style="fill:#000; stroke:none" class="cell_ctrl">mem_write</text>
    </g>
    <g transform="translate(30,110)" s:x="30" s:y="10" s:pid="out0" id="port_ctrl~pc_src">
      <text x="5" y="-4" style="fill:#000; stroke:none" class="cell_ctrl">pc_src</text>
    </g>
    <g transform="translate(30,130)" s:x="30" s:y="10" s:pid="out0" id="port_ctrl~reg_sel">
      <text x="5" y="-4" style="fill:#000; stroke:none" class="cell_ctrl">reg_sel</text>
    </g>
    <g transform="translate(30,150)" s:x="30" s:y="10" s:pid="out0" id="port_ctrl~reg_write">
      <text x="5" y="-4" style="fill:#000; stroke:none" class="cell_ctrl">reg_write</text>
    </g>
  </g>
  <g s:type="generic" stroke="#1565C0" stroke-width="1.4" transform="translate(937.8333333333334,1058.5)" s:width="30" s:height="40" id="cell_dmem">
    <text x="15" y="-4" class="nodelabel cell_dmem" s:attribute="ref">data_memory</text>
    <rect width="30" height="100" s:generic="body" class="cell_dmem"/>
    <g transform="translate(0,10)" s:x="0" s:y="10" s:pid="in0" id="port_dmem~addr">
      <text x="-3" y="-4" class="inputPortLabel cell_dmem">addr</text>
    </g>
    <g transform="translate(0,30)" s:x="0" s:y="10" s:pid="in0" id="port_dmem~clk">
      <text x="-3" y="-4" class="inputPortLabel cell_dmem">clk</text>
    </g>
    <g transform="translate(0,50)" s:x="0" s:y="10" s:pid="in0" id="port_dmem~mem_read">
      <text x="-3" y="-4" class="inputPortLabel cell_dmem">mem_read</text>
    </g>
    <g transform="translate(0,70)" s:x="0" s:y="10" s:pid="in0" id="port_dmem~mem_write">
      <text x="-3" y="-4" class="inputPortLabel cell_dmem">mem_write</text>
    </g>
    <g transform="translate(0,90)" s:x="0" s:y="10" s:pid="in0" id="port_dmem~write_data">
      <text x="-3" y="-4" class="inputPortLabel cell_dmem">write_data</text>
    </g>
    <g transform="translate(30,10)" s:x="30" s:y="10" s:pid="out0" id="port_dmem~read_data">
      <text x="5" y="-4" style="fill:#000; stroke:none" class="cell_dmem">read_data</text>
    </g>
  </g>
  <g s:type="generic" stroke="#1565C0" stroke-width="1.4" transform="translate(1108,97)" s:width="30" s:height="40" id="cell_imem">
    <text x="15" y="-4" class="nodelabel cell_imem" s:attribute="ref">instruction_memory</text>
    <rect width="30" height="20" s:generic="body" class="cell_imem"/>
    <g transform="translate(0,10)" s:x="0" s:y="10" s:pid="in0" id="port_imem~addr">
      <text x="-3" y="-4" class="inputPortLabel cell_imem">addr</text>
    </g>
    <g transform="translate(30,10)" s:x="30" s:y="10" s:pid="out0" id="port_imem~instruction">
      <text x="5" y="-4" style="fill:#000; stroke:none" class="cell_imem">instruction</text>
    </g>
  </g>
  <g s:type="generic" stroke="#1565C0" stroke-width="1.4" transform="translate(681.3333333333334,162)" s:width="30" s:height="40" id="cell_pc_inst">
    <text x="15" y="-4" class="nodelabel cell_pc_inst" s:attribute="ref">program_counter</text>
    <rect width="30" height="100" s:generic="body" class="cell_pc_inst"/>
    <g transform="translate(0,10)" s:x="0" s:y="10" s:pid="in0" id="port_pc_inst~clk">
      <text x="-3" y="-4" class="inputPortLabel cell_pc_inst">clk</text>
    </g>
    <g transform="translate(0,30)" s:x="0" s:y="10" s:pid="in0" id="port_pc_inst~halt">
      <text x="-3" y="-4" class="inputPortLabel cell_pc_inst">halt</text>
    </g>
    <g transform="translate(0,50)" s:x="0" s:y="10" s:pid="in0" id="port_pc_inst~pc_next">
      <text x="-3" y="-4" class="inputPortLabel cell_pc_inst">pc_next</text>
    </g>
    <g transform="translate(0,70)" s:x="0" s:y="10" s:pid="in0" id="port_pc_inst~pc_write">
      <text x="-3" y="-4" class="inputPortLabel cell_pc_inst">pc_write</text>
    </g>
    <g transform="translate(0,90)" s:x="0" s:y="10" s:pid="in0" id="port_pc_inst~rst_n">
      <text x="-3" y="-4" class="inputPortLabel cell_pc_inst">rst_n</text>
    </g>
    <g transform="translate(30,10)" s:x="30" s:y="10" s:pid="out0" id="port_pc_inst~pc">
      <text x="5" y="-4" style="fill:#000; stroke:none" class="cell_pc_inst">pc</text>
    </g>
  </g>
  <g s:type="generic" stroke="#1565C0" stroke-width="1.4" transform="translate(681,585)" s:width="30" s:height="40" id="cell_rf">
    <text x="15" y="-4" class="nodelabel cell_rf" s:attribute="ref">register_file</text>
    <rect width="30" height="140" s:generic="body" class="cell_rf"/>
    <g transform="translate(0,10)" s:x="0" s:y="10" s:pid="in0" id="port_rf~clk">
      <text x="-3" y="-4" class="inputPortLabel cell_rf">clk</text>
    </g>
    <g transform="translate(0,30)" s:x="0" s:y="10" s:pid="in0" id="port_rf~read_reg1">
      <text x="-3" y="-4" class="inputPortLabel cell_rf">read_reg1</text>
    </g>
    <g transform="translate(0,50)" s:x="0" s:y="10" s:pid="in0" id="port_rf~read_reg2">
      <text x="-3" y="-4" class="inputPortLabel cell_rf">read_reg2</text>
    </g>
    <g transform="translate(0,70)" s:x="0" s:y="10" s:pid="in0" id="port_rf~reg_write">
      <text x="-3" y="-4" class="inputPortLabel cell_rf">reg_write</text>
    </g>
    <g transform="translate(0,90)" s:x="0" s:y="10" s:pid="in0" id="port_rf~rst_n">
      <text x="-3" y="-4" class="inputPortLabel cell_rf">rst_n</text>
    </g>
    <g transform="translate(0,110)" s:x="0" s:y="10" s:pid="in0" id="port_rf~write_data">
      <text x="-3" y="-4" class="inputPortLabel cell_rf">write_data</text>
    </g>
    <g transform="translate(0,130)" s:x="0" s:y="10" s:pid="in0" id="port_rf~write_reg">
      <text x="-3" y="-4" class="inputPortLabel cell_rf">write_reg</text>
    </g>
    <g transform="translate(30,10)" s:x="30" s:y="10" s:pid="out0" id="port_rf~read_data1">
      <text x="5" y="-4" style="fill:#000; stroke:none" class="cell_rf">read_data1</text>
    </g>
    <g transform="translate(30,30)" s:x="30" s:y="10" s:pid="out0" id="port_rf~read_data2">
      <text x="5" y="-4" style="fill:#000; stroke:none" class="cell_rf">read_data2</text>
    </g>
  </g>
  <g s:type="inputExt" stroke="#6A1B9A" stroke-width="1.4" transform="translate(520,540.5)" s:width="30" s:height="20" id="cell_clk">
    <text x="15" y="-4" class="nodelabel cell_clk" s:attribute="ref">clk</text>
    <s:alias val="$_inputExt_"/>
    <path fill="#F3E5F5" d="M0,0 L0,20 L15,20 L30,10 L15,0 Z" class="cell_clk"/>
    <g s:x="28" s:y="10" s:pid="Y"/>
  </g>
  <g s:type="inputExt" stroke="#6A1B9A" stroke-width="1.4" transform="translate(520,360)" s:width="30" s:height="20" id="cell_rst_n">
    <text x="15" y="-4" class="nodelabel cell_rst_n" s:attribute="ref">rst_n</text>
    <s:alias val="$_inputExt_"/>
    <path fill="#F3E5F5" d="M0,0 L0,20 L15,20 L30,10 L15,0 Z" class="cell_rst_n"/>
    <g s:x="28" s:y="10" s:pid="Y"/>
  </g>
  <g s:type="outputExt" stroke="#00695C" stroke-width="1.4" transform="translate(1108,247)" s:width="30" s:height="20" id="cell_out_port">
    <text x="15" y="-4" class="nodelabel cell_out_port" s:attribute="ref">out_port</text>
    <s:alias val="$_outputExt_"/>
    <path fill="#E0F2F1" d="M30,0 L30,20 L15,20 L0,10 L15,0 Z" class="cell_out_port"/>
    <g s:x="0" s:y="10" s:pid="A"/>
  </g>
  <g s:type="outputExt" stroke="#00695C" stroke-width="1.4" transform="translate(1108,32)" s:width="30" s:height="20" id="cell_halt_out">
    <text x="15" y="-4" class="nodelabel cell_halt_out" s:attribute="ref">halt_out</text>
    <s:alias val="$_outputExt_"/>
    <path fill="#E0F2F1" d="M30,0 L30,20 L15,20 L0,10 L15,0 Z" class="cell_halt_out"/>
    <g s:x="0" s:y="10" s:pid="A"/>
  </g>
  <g s:type="outputExt" stroke="#00695C" stroke-width="1.4" transform="translate(54,22)" s:width="30" s:height="20" id="cell_debug_r0">
    <text x="15" y="-4" class="nodelabel cell_debug_r0" s:attribute="ref">debug_r0</text>
    <s:alias val="$_outputExt_"/>
    <path fill="#E0F2F1" d="M30,0 L30,20 L15,20 L0,10 L15,0 Z" class="cell_debug_r0"/>
    <g s:x="0" s:y="10" s:pid="A"/>
  </g>
  <g s:type="constant" stroke="#616161" stroke-width="1.2" transform="translate(681,428)" s:width="30" s:height="20" id="cell_00000000000000000000000000000001">
    <text x="15" y="-4" class="nodelabel cell_00000000000000000000000000000001" s:attribute="ref">0x1</text>
    <s:alias val="$_constant_"/>
    <rect fill="#F5F5F5" width="30" height="20" class="cell_00000000000000000000000000000001"/>
    <g s:x="30" s:y="10" s:pid="Y"/>
  </g>
  <g s:type="constant" stroke="#616161" stroke-width="1.2" transform="translate(293,230)" s:width="30" s:height="20" id="cell_1111">
    <text x="15" y="-4" class="nodelabel cell_1111" s:attribute="ref">0xf</text>
    <s:alias val="$_constant_"/>
    <rect fill="#F5F5F5" width="30" height="20" class="cell_1111"/>
    <g s:x="30" s:y="10" s:pid="Y"/>
  </g>
  <g s:type="constant" stroke="#616161" stroke-width="1.2" transform="translate(134,314.5)" s:width="30" s:height="20" id="cell_1110">
    <text x="15" y="-4" class="nodelabel cell_1110" s:attribute="ref">0xe</text>
    <s:alias val="$_constant_"/>
    <rect fill="#F5F5F5" width="30" height="20" class="cell_1110"/>
    <g s:x="30" s:y="10" s:pid="Y"/>
  </g>
  <g s:type="constant" stroke="#616161" stroke-width="1.2" transform="translate(293,746.5)" s:width="30" s:height="20" id="cell_01">
    <text x="15" y="-4" class="nodelabel cell_01" s:attribute="ref">01</text>
    <s:alias val="$_constant_"/>
    <rect fill="#F5F5F5" width="30" height="20" class="cell_01"/>
    <g s:x="30" s:y="10" s:pid="Y"/>
  </g>
  <g s:type="constant" stroke="#616161" stroke-width="1.2" transform="translate(293,683)" s:width="30" s:height="20" id="cell_0010">
    <text x="15" y="-4" class="nodelabel cell_0010" s:attribute="ref">0x2</text>
    <s:alias val="$_constant_"/>
    <rect fill="#F5F5F5" width="30" height="20" class="cell_0010"/>
    <g s:x="30" s:y="10" s:pid="Y"/>
  </g>
  <g s:type="constant" stroke="#616161" stroke-width="1.2" transform="translate(681,500.5)" s:width="30" s:height="20" id="cell_0000000000000000000000000000">
    <text x="15" y="-4" class="nodelabel cell_0000000000000000000000000000" s:attribute="ref">0x0</text>
    <s:alias val="$_constant_"/>
    <rect fill="#F5F5F5" width="30" height="20" class="cell_0000000000000000000000000000"/>
    <g s:x="30" s:y="10" s:pid="Y"/>
  </g>
  <g s:type="constant" stroke="#616161" stroke-width="1.2" transform="translate(455,615.5)" s:width="30" s:height="20" id="cell_00">
    <text x="15" y="-4" class="nodelabel cell_00" s:attribute="ref">00</text>
    <s:alias val="$_constant_"/>
    <rect fill="#F5F5F5" width="30" height="20" class="cell_00"/>
    <g s:x="30" s:y="10" s:pid="Y"/>
  </g>
  <g s:type="constant" stroke="#616161" stroke-width="1.2" transform="translate(12,22)" s:width="30" s:height="20" id="cell_000">
    <text x="15" y="-4" class="nodelabel cell_000" s:attribute="ref">000</text>
    <s:alias val="$_constant_"/>
    <rect fill="#F5F5F5" width="30" height="20" class="cell_000"/>
    <g s:x="30" s:y="10" s:pid="Y"/>
  </g>
  <g s:type="join" transform="translate(832,480)" s:width="4" s:height="40" id="cell_$join$,68,69,70,71,183,184,185,186,187,188,189,190,191,192,193,194,195,196,197,198,199,200,201,202,203,204,205,206,207,208,209,210,">
    <rect width="5" height="40" class="splitjoinBody" s:generic="body"/>
    <s:alias val="$_join_"/>
    <g s:x="5" s:y="20" s:pid="out"/>
    <g transform="translate(0,10)" s:x="0" s:y="10" s:pid="in0">
      <text x="-3" y="-4" class="inputPortLabel">0:3</text>
    </g>
    <g transform="translate(0,30)" s:x="0" s:y="10" s:pid="in0">
      <text x="-3" y="-4" class="inputPortLabel">4:31</text>
    </g>
  </g>
  <g s:type="split" transform="translate(140,1022.5)" s:width="5" s:height="40" id="cell_$split$,68,69,70,71,51,52,53,54,133,">
    <rect width="5" height="100" class="splitjoinBody" s:generic="body"/>
    <s:alias val="$_split_"/>
    <g s:x="0" s:y="20" s:pid="in"/>
    <g transform="translate(4,10)" s:x="4" s:y="10" s:pid="out0">
      <text x="5" y="-4">4:7</text>
    </g>
    <g transform="translate(4,30)" s:x="4" s:y="10" s:pid="out0">
      <text x="5" y="-4">0:3</text>
    </g>
    <g transform="translate(4,50)" s:x="4" s:y="10" s:pid="out0">
      <text x="5" y="-4">2:3</text>
    </g>
    <g transform="translate(4,70)" s:x="4" s:y="10" s:pid="out0">
      <text x="5" y="-4">0:1</text>
    </g>
    <g transform="translate(4,90)" s:x="4" s:y="10" s:pid="out0">
      <text x="5" y="-4">8</text>
    </g>
  </g>
  <g s:type="split" transform="translate(1108,457.5)" s:width="5" s:height="40" id="cell_$split$,91,92,93,94,95,96,97,98,99,100,101,102,103,104,105,106,107,108,109,110,111,112,113,114,115,116,117,118,119,120,121,122,">
    <rect width="5" height="20" class="splitjoinBody" s:generic="body"/>
    <s:alias val="$_split_"/>
    <g s:x="0" s:y="20" s:pid="in"/>
    <g transform="translate(4,10)" s:x="4" s:y="10" s:pid="out0">
      <text x="5" y="-4">0:3</text>
    </g>
  </g>
  <line x1="712.3333333333334" x2="803" y1="172.5" y2="172.5" class="net_10,11,12,13"/>
  <line x1="803" x2="803" y1="172.5" y2="423" class="net_10,11,12,13"/>
  <circle cx="803" cy="172.5" r="2" style="fill:#000" class="net_10,11,12,13"/>
  <line x1="803" x2="816" y1="423" y2="423" class="net_10,11,12,13"/>
  <line x1="712.3333333333334" x2="803" y1="172.5" y2="172.5" class="net_10,11,12,13"/>
  <line x1="803" x2="803" y1="172.5" y2="107.5" class="net_10,11,12,13"/>
  <line x1="803" x2="1108" y1="107.5" y2="107.5" class="net_10,11,12,13"/>
  <line x1="711" x2="816" y1="438" y2="438" class="net_137,138,139,140,141,142,143,144,145,146,147,148,149,150,151,152,153,154,155,156,157,158,159,160,161,162,163,164,165,166,167,168"/>
  <line x1="548" x2="610" y1="370" y2="370" class="net_3"/>
  <line x1="610" x2="610" y1="370" y2="275" class="net_3"/>
  <line x1="610" x2="848" y1="275" y2="275" class="net_3"/>
  <line x1="848" x2="848" y1="275" y2="257" class="net_3"/>
  <circle cx="610" cy="370" r="2" style="fill:#000" class="net_3"/>
  <circle cx="610" cy="275" r="2" style="fill:#000" class="net_3"/>
  <line x1="848" x2="898" y1="257" y2="257" class="net_3"/>
  <line x1="548" x2="1108" y1="370" y2="370" class="net_3"/>
  <line x1="548" x2="610" y1="370" y2="370" class="net_3"/>
  <line x1="610" x2="610" y1="370" y2="530.5" class="net_3"/>
  <circle cx="610" cy="530.5" r="2" style="fill:#000" class="net_3"/>
  <line x1="610" x2="1108" y1="530.5" y2="530.5" class="net_3"/>
  <line x1="548" x2="610" y1="370" y2="370" class="net_3"/>
  <line x1="610" x2="610" y1="370" y2="252.5" class="net_3"/>
  <line x1="610" x2="681.3333333333334" y1="252.5" y2="252.5" class="net_3"/>
  <line x1="548" x2="610" y1="370" y2="370" class="net_3"/>
  <line x1="610" x2="610" y1="370" y2="675.5" class="net_3"/>
  <line x1="610" x2="681" y1="675.5" y2="675.5" class="net_3"/>
  <line x1="548" x2="570" y1="550.5" y2="550.5" class="net_2"/>
  <line x1="570" x2="570" y1="550.5" y2="286" class="net_2"/>
  <line x1="570" x2="848" y1="286" y2="286" class="net_2"/>
  <line x1="848" x2="848" y1="286" y2="277" class="net_2"/>
  <circle cx="570" cy="550.5" r="2" style="fill:#000" class="net_2"/>
  <circle cx="570" cy="286" r="2" style="fill:#000" class="net_2"/>
  <line x1="848" x2="898" y1="277" y2="277" class="net_2"/>
  <line x1="548" x2="570" y1="550.5" y2="550.5" class="net_2"/>
  <line x1="570" x2="570" y1="550.5" y2="390" class="net_2"/>
  <circle cx="570" cy="390" r="2" style="fill:#000" class="net_2"/>
  <line x1="570" x2="1108" y1="390" y2="390" class="net_2"/>
  <line x1="548" x2="1108" y1="550.5" y2="550.5" class="net_2"/>
  <line x1="548" x2="570" y1="550.5" y2="550.5" class="net_2"/>
  <line x1="570" x2="570" y1="550.5" y2="1089" class="net_2"/>
  <line x1="570" x2="937.8333333333334" y1="1089" y2="1089" class="net_2"/>
  <line x1="548" x2="570" y1="550.5" y2="550.5" class="net_2"/>
  <line x1="570" x2="570" y1="550.5" y2="172.5" class="net_2"/>
  <line x1="570" x2="681.3333333333334" y1="172.5" y2="172.5" class="net_2"/>
  <line x1="548" x2="570" y1="550.5" y2="550.5" class="net_2"/>
  <line x1="570" x2="570" y1="550.5" y2="595.5" class="net_2"/>
  <circle cx="570" cy="595.5" r="2" style="fill:#000" class="net_2"/>
  <line x1="570" x2="681" y1="595.5" y2="595.5" class="net_2"/>
  <line x1="712" x2="793" y1="595.5" y2="595.5" class="net_46,47,48,49"/>
  <line x1="793" x2="793" y1="595.5" y2="297" class="net_46,47,48,49"/>
  <circle cx="793" cy="595.5" r="2" style="fill:#000" class="net_46,47,48,49"/>
  <line x1="793" x2="898" y1="297" y2="297" class="net_46,47,48,49"/>
  <line x1="712" x2="793" y1="595.5" y2="595.5" class="net_46,47,48,49"/>
  <line x1="793" x2="793" y1="595.5" y2="818" class="net_46,47,48,49"/>
  <line x1="793" x2="848" y1="818" y2="818" class="net_46,47,48,49"/>
  <line x1="848" x2="848" y1="818" y2="829" class="net_46,47,48,49"/>
  <circle cx="793" cy="818" r="2" style="fill:#000" class="net_46,47,48,49"/>
  <line x1="848" x2="945.5" y1="829" y2="829" class="net_46,47,48,49"/>
  <line x1="712" x2="793" y1="595.5" y2="595.5" class="net_46,47,48,49"/>
  <line x1="793" x2="793" y1="595.5" y2="1149" class="net_46,47,48,49"/>
  <line x1="793" x2="937.8333333333334" y1="1149" y2="1149" class="net_46,47,48,49"/>
  <line x1="324" x2="898" y1="317" y2="317" class="net_50"/>
  <line x1="324" x2="405" y1="317" y2="317" class="net_50"/>
  <line x1="405" x2="405" y1="317" y2="595.5" class="net_50"/>
  <line x1="405" x2="468.3333333333333" y1="595.5" y2="595.5" class="net_50"/>
  <circle cx="405" cy="317" r="2" style="fill:#000" class="net_50"/>
  <line x1="468.3333333333333" x2="468.3333333333333" y1="595.5" y2="580.5" class="net_50"/>
  <line x1="145" x2="184" y1="1033" y2="1033" class="net_51,52,53,54"/>
  <line x1="184" x2="184" y1="1033" y2="209" class="net_51,52,53,54"/>
  <line x1="184" x2="395" y1="209" y2="209" class="net_51,52,53,54"/>
  <line x1="395" x2="395" y1="209" y2="225" class="net_51,52,53,54"/>
  <line x1="395" x2="459.6666666666667" y1="225" y2="225" class="net_51,52,53,54"/>
  <line x1="145" x2="184" y1="1033" y2="1033" class="net_51,52,53,54"/>
  <line x1="184" x2="184" y1="1033" y2="309.5" class="net_51,52,53,54"/>
  <circle cx="184" cy="309.5" r="2" style="fill:#000" class="net_51,52,53,54"/>
  <line x1="184" x2="302" y1="309.5" y2="309.5" class="net_51,52,53,54"/>
  <line x1="145" x2="184" y1="1033" y2="1033" class="net_51,52,53,54"/>
  <line x1="184" x2="184" y1="1033" y2="662" class="net_51,52,53,54"/>
  <line x1="184" x2="395" y1="662" y2="662" class="net_51,52,53,54"/>
  <line x1="395" x2="395" y1="662" y2="678" class="net_51,52,53,54"/>
  <circle cx="184" cy="662" r="2" style="fill:#000" class="net_51,52,53,54"/>
  <line x1="395" x2="459.6666666666667" y1="678" y2="678" class="net_51,52,53,54"/>
  <line x1="145" x2="184" y1="1033" y2="1033" class="net_51,52,53,54"/>
  <line x1="184" x2="184" y1="1033" y2="930.5" class="net_51,52,53,54"/>
  <circle cx="184" cy="930.5" r="2" style="fill:#000" class="net_51,52,53,54"/>
  <line x1="184" x2="293" y1="930.5" y2="930.5" class="net_51,52,53,54"/>
  <line x1="323" x2="459.6666666666667" y1="240" y2="240" class="net_169,170,171,172"/>
  <line x1="164" x2="302" y1="324.5" y2="324.5" class="net_173,174,175,176"/>
  <line x1="324" x2="415" y1="1010.5" y2="1010.5" class="net_55,56"/>
  <line x1="415" x2="415" y1="1010.5" y2="741.5" class="net_55,56"/>
  <line x1="415" x2="459.6666666666667" y1="741.5" y2="741.5" class="net_55,56"/>
  <line x1="323" x2="459.6666666666667" y1="756.5" y2="756.5" class="net_177,178"/>
  <line x1="323" x2="459.6666666666667" y1="693" y2="693" class="net_179,180,181,182"/>
  <line x1="481.6666666666667" x2="520" y1="232.5" y2="232.5" class="net_8"/>
  <line x1="481.6666666666667" x2="495" y1="232.5" y2="232.5" class="net_8"/>
  <line x1="495" x2="495" y1="232.5" y2="211.5" class="net_8"/>
  <line x1="495" x2="560" y1="211.5" y2="211.5" class="net_8"/>
  <line x1="560" x2="560" y1="211.5" y2="192.5" class="net_8"/>
  <circle cx="495" cy="232.5" r="2" style="fill:#000" class="net_8"/>
  <circle cx="495" cy="211.5" r="2" style="fill:#000" class="net_8"/>
  <line x1="560" x2="681.3333333333334" y1="192.5" y2="192.5" class="net_8"/>
  <line x1="481.6666666666667" x2="495" y1="232.5" y2="232.5" class="net_8"/>
  <line x1="495" x2="495" y1="232.5" y2="42" class="net_8"/>
  <line x1="495" x2="1108" y1="42" y2="42" class="net_8"/>
  <line x1="976.5" x2="1058" y1="889" y2="889" class="net_60"/>
  <line x1="1058" x2="1058" y1="889" y2="410" class="net_60"/>
  <line x1="1058" x2="1108" y1="410" y2="410" class="net_60"/>
  <line x1="976.5" x2="1068" y1="849" y2="849" class="net_62"/>
  <line x1="1068" x2="1068" y1="849" y2="570.5" class="net_62"/>
  <line x1="1068" x2="1108" y1="570.5" y2="570.5" class="net_62"/>
  <line x1="712" x2="783" y1="615.5" y2="615.5" class="net_64,65,66,67"/>
  <line x1="783" x2="783" y1="615.5" y2="839" class="net_64,65,66,67"/>
  <line x1="783" x2="818" y1="839" y2="839" class="net_64,65,66,67"/>
  <line x1="145" x2="194" y1="1053" y2="1053" class="net_68,69,70,71"/>
  <line x1="194" x2="194" y1="1053" y2="859" class="net_68,69,70,71"/>
  <circle cx="194" cy="1053" r="2" style="fill:#000" class="net_68,69,70,71"/>
  <circle cx="194" cy="859" r="2" style="fill:#000" class="net_68,69,70,71"/>
  <line x1="194" x2="818" y1="859" y2="859" class="net_68,69,70,71"/>
  <line x1="145" x2="848" y1="1053" y2="1053" class="net_68,69,70,71"/>
  <line x1="848" x2="848" y1="1053" y2="1069" class="net_68,69,70,71"/>
  <line x1="848" x2="937.8333333333334" y1="1069" y2="1069" class="net_68,69,70,71"/>
  <line x1="145" x2="194" y1="1053" y2="1053" class="net_68,69,70,71"/>
  <line x1="194" x2="194" y1="1053" y2="479.5" class="net_68,69,70,71"/>
  <line x1="194" x2="803" y1="479.5" y2="479.5" class="net_68,69,70,71"/>
  <line x1="803" x2="803" y1="479.5" y2="490.5" class="net_68,69,70,71"/>
  <line x1="803" x2="832" y1="490.5" y2="490.5" class="net_68,69,70,71"/>
  <line x1="324" x2="445" y1="910.5" y2="910.5" class="net_72"/>
  <line x1="445" x2="445" y1="910.5" y2="879.5" class="net_72"/>
  <line x1="445" x2="828" y1="879.5" y2="879.5" class="net_72"/>
  <line x1="828" x2="828" y1="879.5" y2="864" class="net_72"/>
  <line x1="976.5" x2="1068" y1="869" y2="869" class="net_77,78,79,80"/>
  <line x1="1068" x2="1068" y1="869" y2="1049" class="net_77,78,79,80"/>
  <line x1="1068" x2="1108" y1="1049" y2="1049" class="net_77,78,79,80"/>
  <line x1="968.8333333333334" x2="1108" y1="1069" y2="1069" class="net_81,82,83,84"/>
  <line x1="324" x2="395" y1="950.5" y2="950.5" class="net_85"/>
  <line x1="395" x2="395" y1="950.5" y2="1171.5" class="net_85"/>
  <line x1="395" x2="1118" y1="1171.5" y2="1171.5" class="net_85"/>
  <line x1="1118" x2="1118" y1="1171.5" y2="1074" class="net_85"/>
  <line x1="838" x2="848" y1="430.5" y2="430.5" class="net_14,15,16,17,18,19,20,21,22,23,24,25,26,27,28,29,30,31,32,33,34,35,36,37,38,39,40,41,42,43,44,45"/>
  <line x1="848" x2="848" y1="430.5" y2="480.5" class="net_14,15,16,17,18,19,20,21,22,23,24,25,26,27,28,29,30,31,32,33,34,35,36,37,38,39,40,41,42,43,44,45"/>
  <line x1="848" x2="945" y1="480.5" y2="480.5" class="net_14,15,16,17,18,19,20,21,22,23,24,25,26,27,28,29,30,31,32,33,34,35,36,37,38,39,40,41,42,43,44,45"/>
  <line x1="838" x2="945" y1="500.5" y2="500.5" class="net_68,69,70,71,183,184,185,186,187,188,189,190,191,192,193,194,195,196,197,198,199,200,201,202,203,204,205,206,207,208,209,210"/>
  <line x1="324" x2="435" y1="990.5" y2="990.5" class="net_90"/>
  <line x1="435" x2="435" y1="990.5" y2="798.5" class="net_90"/>
  <line x1="435" x2="955" y1="798.5" y2="798.5" class="net_90"/>
  <line x1="955" x2="955" y1="798.5" y2="505.5" class="net_90"/>
  <line x1="485" x2="495" y1="625.5" y2="625.5" class="net_211,212"/>
  <line x1="495" x2="495" y1="625.5" y2="705.5" class="net_211,212"/>
  <circle cx="495" cy="625.5" r="2" style="fill:#000" class="net_211,212"/>
  <line x1="495" x2="523.3333333333333" y1="705.5" y2="705.5" class="net_211,212"/>
  <line x1="485" x2="523.3333333333333" y1="625.5" y2="625.5" class="net_211,212"/>
  <line x1="145" x2="204" y1="1073" y2="1073" class="net_70,71"/>
  <line x1="204" x2="204" y1="1073" y2="725.5" class="net_70,71"/>
  <circle cx="204" cy="725.5" r="2" style="fill:#000" class="net_70,71"/>
  <line x1="204" x2="523.3333333333333" y1="725.5" y2="725.5" class="net_70,71"/>
  <line x1="145" x2="204" y1="1073" y2="1073" class="net_70,71"/>
  <line x1="204" x2="204" y1="1073" y2="564.5" class="net_70,71"/>
  <line x1="204" x2="395" y1="564.5" y2="564.5" class="net_70,71"/>
  <line x1="395" x2="395" y1="564.5" y2="555.5" class="net_70,71"/>
  <line x1="395" x2="458.3333333333333" y1="555.5" y2="555.5" class="net_70,71"/>
  <line x1="481.6666666666667" x2="533.3333333333333" y1="749" y2="749" class="net_57"/>
  <line x1="533.3333333333333" x2="533.3333333333333" y1="749" y2="730.5" class="net_57"/>
  <line x1="478.3333333333333" x2="495" y1="565.5" y2="565.5" class="net_125,126"/>
  <line x1="495" x2="495" y1="565.5" y2="605.5" class="net_125,126"/>
  <line x1="495" x2="523.3333333333333" y1="605.5" y2="605.5" class="net_125,126"/>
  <line x1="481.6666666666667" x2="533.3333333333333" y1="685.5" y2="685.5" class="net_58"/>
  <line x1="533.3333333333333" x2="533.3333333333333" y1="685.5" y2="630.5" class="net_58"/>
  <line x1="145" x2="214" y1="1093" y2="1093" class="net_68,69"/>
  <line x1="214" x2="214" y1="1093" y2="575.5" class="net_68,69"/>
  <line x1="214" x2="458.3333333333333" y1="575.5" y2="575.5" class="net_68,69"/>
  <line x1="145" x2="214" y1="1093" y2="1093" class="net_68,69"/>
  <line x1="214" x2="214" y1="1093" y2="776.5" class="net_68,69"/>
  <line x1="214" x2="580" y1="776.5" y2="776.5" class="net_68,69"/>
  <line x1="580" x2="580" y1="776.5" y2="635.5" class="net_68,69"/>
  <circle cx="214" cy="776.5" r="2" style="fill:#000" class="net_68,69"/>
  <line x1="580" x2="681" y1="635.5" y2="635.5" class="net_68,69"/>
  <line x1="838" x2="945.5" y1="849" y2="849" class="net_73,74,75,76"/>
  <line x1="324" x2="848" y1="890.5" y2="890.5" class="net_130,131,132"/>
  <line x1="848" x2="848" y1="890.5" y2="869" class="net_130,131,132"/>
  <line x1="848" x2="945.5" y1="869" y2="869" class="net_130,131,132"/>
  <line x1="144.5" x2="144.5" y1="1113.5" y2="1132.5" class="net_133"/>
  <line x1="144.5" x2="224" y1="1132.5" y2="1132.5" class="net_133"/>
  <line x1="224" x2="224" y1="1132.5" y2="890.5" class="net_133"/>
  <line x1="224" x2="293" y1="890.5" y2="890.5" class="net_133"/>
  <line x1="1139" x2="1216" y1="530.5" y2="530.5" class="net_63"/>
  <line x1="1216" x2="1216" y1="530.5" y2="1182.5" class="net_63"/>
  <line x1="1216" x2="234" y1="1182.5" y2="1182.5" class="net_63"/>
  <line x1="234" x2="234" y1="1182.5" y2="910.5" class="net_63"/>
  <line x1="234" x2="293" y1="910.5" y2="910.5" class="net_63"/>
  <line x1="1139" x2="1216" y1="370" y2="370" class="net_61"/>
  <line x1="1216" x2="1216" y1="370" y2="141" class="net_61"/>
  <line x1="1216" x2="174" y1="141" y2="141" class="net_61"/>
  <line x1="174" x2="174" y1="141" y2="950.5" class="net_61"/>
  <line x1="174" x2="293" y1="950.5" y2="950.5" class="net_61"/>
  <line x1="324" x2="445" y1="930.5" y2="930.5" class="net_134"/>
  <line x1="445" x2="445" y1="930.5" y2="1109" class="net_134"/>
  <line x1="445" x2="937.8333333333334" y1="1109" y2="1109" class="net_134"/>
  <line x1="324" x2="405" y1="970.5" y2="970.5" class="net_135"/>
  <line x1="405" x2="405" y1="970.5" y2="1129" class="net_135"/>
  <line x1="405" x2="937.8333333333334" y1="1129" y2="1129" class="net_135"/>
  <line x1="1113" x2="1236" y1="468" y2="468" class="net_91,92,93,94"/>
  <line x1="1236" x2="1236" y1="468" y2="130" class="net_91,92,93,94"/>
  <line x1="1236" x2="610" y1="130" y2="130" class="net_91,92,93,94"/>
  <line x1="610" x2="610" y1="130" y2="212.5" class="net_91,92,93,94"/>
  <line x1="610" x2="681.3333333333334" y1="212.5" y2="212.5" class="net_91,92,93,94"/>
  <line x1="545" x2="681.3333333333334" y1="232.5" y2="232.5" class="net_59"/>
  <line x1="543.3333333333333" x2="681" y1="615.5" y2="615.5" class="net_127,128"/>
  <line x1="324" x2="425" y1="1030.5" y2="1030.5" class="net_136"/>
  <line x1="425" x2="425" y1="1030.5" y2="787.5" class="net_136"/>
  <line x1="425" x2="600" y1="787.5" y2="787.5" class="net_136"/>
  <line x1="600" x2="600" y1="787.5" y2="655.5" class="net_136"/>
  <line x1="600" x2="681" y1="655.5" y2="655.5" class="net_136"/>
  <line x1="1128" x2="1226" y1="1059" y2="1059" class="net_86,87,88,89"/>
  <line x1="1226" x2="1226" y1="1059" y2="339.5" class="net_86,87,88,89"/>
  <line x1="1226" x2="590" y1="339.5" y2="339.5" class="net_86,87,88,89"/>
  <line x1="590" x2="590" y1="339.5" y2="695.5" class="net_86,87,88,89"/>
  <line x1="590" x2="681" y1="695.5" y2="695.5" class="net_86,87,88,89"/>
  <line x1="543.3333333333333" x2="681" y1="715.5" y2="715.5" class="net_123,124"/>
  <line x1="929" x2="1108" y1="257" y2="257" class="net_4,5,6,7"/>
  <line x1="711" x2="832" y1="510.5" y2="510.5" class="net_183,184,185,186,187,188,189,190,191,192,193,194,195,196,197,198,199,200,201,202,203,204,205,206,207,208,209,210"/>
  <line x1="1139" x2="1216" y1="107.5" y2="107.5" class="net_68,69,70,71,51,52,53,54,133"/>
  <line x1="1216" x2="1216" y1="107.5" y2="12" class="net_68,69,70,71,51,52,53,54,133"/>
  <line x1="1216" x2="114" y1="12" y2="12" class="net_68,69,70,71,51,52,53,54,133"/>
  <line x1="114" x2="114" y1="12" y2="1043" class="net_68,69,70,71,51,52,53,54,133"/>
  <line x1="114" x2="140" y1="1043" y2="1043" class="net_68,69,70,71,51,52,53,54,133"/>
  <line x1="965" x2="1108.5" y1="490.5" y2="490.5" class="net_91,92,93,94,95,96,97,98,99,100,101,102,103,104,105,106,107,108,109,110,111,112,113,114,115,116,117,118,119,120,121,122"/>
  <line x1="1108.5" x2="1108.5" y1="490.5" y2="478.5" class="net_91,92,93,94,95,96,97,98,99,100,101,102,103,104,105,106,107,108,109,110,111,112,113,114,115,116,117,118,119,120,121,122"/>
</svg>
